<svg xmlns="http://www.w3.org/2000/svg" width="800" height="800" viewBox="0 0 800 800"><title>icon</title><path d="M777.45,336.2,691,315.79a301.67,301.67,0,0,0-25.58-62.09L712,178.23a29.25,29.25,0,0,0-4.2-36.07l-50-50A29.24,29.24,0,0,0,621.79,88l-75.46,46.64A301.62,301.62,0,0,0,484.25,109L463.84,22.53A29.29,29.29,0,0,0,435.36,0H364.68A29.29,29.29,0,0,0,336.2,22.53L315.78,109a300.51,300.51,0,0,0-62.08,25.59L178.23,88a29.3,29.3,0,0,0-36.07,4.21l-50,50A29.3,29.3,0,0,0,88,178.21l46.66,75.49a300.82,300.82,0,0,0-25.57,62.07L22.53,336.18A29.31,29.31,0,0,0,0,364.68v70.66a29.28,29.28,0,0,0,22.53,28.48l86.53,20.41a300.84,300.84,0,0,0,25.57,62L88,621.79a29.32,29.32,0,0,0,4.21,36.09l50,50a29.27,29.27,0,0,0,36.07,4.2l75.51-46.68a300.74,300.74,0,0,0,62.06,25.57l20.42,86.51A29.26,29.26,0,0,0,364.68,800h70.68a29.27,29.27,0,0,0,28.48-22.55l20.41-86.51a300.2,300.2,0,0,0,62-25.57L621.79,712a29.25,29.25,0,0,0,36.07-4.2l50-50A29.26,29.26,0,0,0,712,621.77L665.37,546.3A300,300,0,0,0,691,484.23l86.51-20.41A29.25,29.25,0,0,0,800,435.34V364.66A29.27,29.27,0,0,0,777.45,336.2ZM400,473.6A73.61,73.61,0,1,1,473.62,400,73.62,73.62,0,0,1,400,473.6Z" style="fill:#967730"/></svg>